<svg xmlns="http://www.w3.org/2000/svg" width="1200" height="720" viewBox="0 0 1200 720" role="img" aria-labelledby="t d">
<title id="t">Zoom Web App controls guide</title>
<desc id="d">Source-verified browser guide showing the Zoom Web App meeting toolbar with Audio, Video, Participants, Chat, Share, More, and profile settings.</desc>
<rect width="1200" height="720" rx="28" fill="#0b1218"/>
<text x="48" y="58" fill="#8bd5ff" font-family="Arial" font-size="18" font-weight="700">SOURCE-VERIFIED BROWSER GUIDE</text>
<text x="48" y="92" fill="#eef8ff" font-family="Arial" font-size="28" font-weight="700">Zoom Web App meeting controls</text>
<rect x="90" y="130" width="1020" height="500" rx="24" fill="#111921" stroke="#405a6d"/>
<rect x="90" y="130" width="1020" height="50" rx="24" fill="#18242d"/>
<text x="125" y="162" fill="#9fb1bd" font-family="Arial" font-size="14">Browser tab · Zoom Meeting</text>
<circle cx="600" cy="350" r="95" fill="#31424e"/>
<text x="600" y="360" fill="#dce8ee" text-anchor="middle" font-family="Arial" font-size="22" font-weight="700">CALLER</text>
<rect x="118" y="520" width="964" height="78" rx="16" fill="#0d1419"/>
<g font-family="Arial" font-size="13" text-anchor="middle">
<circle cx="180" cy="552" r="18" fill="#2b7de8"/><text x="180" y="583" fill="#dce8ef">Audio</text>
<circle cx="305" cy="552" r="18" fill="#465866"/><text x="305" y="583" fill="#dce8ef">Video</text>
<circle cx="450" cy="552" r="18" fill="#465866"/><text x="450" y="583" fill="#dce8ef">Participants</text>
<circle cx="600" cy="552" r="18" fill="#465866"/><text x="600" y="583" fill="#dce8ef">Chat</text>
<circle cx="735" cy="552" r="18" fill="#465866"/><text x="735" y="583" fill="#dce8ef">Share</text>
<circle cx="850" cy="552" r="18" fill="#465866"/><text x="850" y="583" fill="#dce8ef">More</text>
<circle cx="990" cy="235" r="28" fill="#29465b"/><text x="990" y="280" fill="#bcd2df">Profile</text>
</g>
<path d="M966 268l-90 86" stroke="#68bdf5" stroke-width="3"/>
<rect x="690" y="320" width="310" height="118" rx="16" fill="#13222d" stroke="#3e769a"/>
<text x="712" y="350" fill="#8bd5ff" font-family="Arial" font-size="15" font-weight="700">Web App Settings</text>
<text x="712" y="378" fill="#d4e0e8" font-family="Arial" font-size="14">Profile picture → Settings</text>
<text x="712" y="404" fill="#d4e0e8" font-family="Arial" font-size="14">Audio: speaker + microphone tests</text>
<text x="48" y="690" fill="#8197a7" font-family="Arial" font-size="13">Guide based on current Zoom Support navigation; not a pixel-for-pixel UI reproduction.</text>
</svg>